<svg width="24" height="24" viewBox="0 0 24 24" fill="none" xmlns="http://www.w3.org/2000/svg">
<path d="M19.5 12H20.5" stroke="#FCF7F3" stroke-linecap="round"/>
<path d="M14 12L16 12" stroke="#FCF7F3" stroke-linecap="round"/>
<path d="M8 12L10 12" stroke="#FCF7F3" stroke-linecap="round"/>
<path d="M3 12L4 12" stroke="#FCF7F3" stroke-linecap="round"/>
<path d="M8 12L8 5" stroke="#FCF7F3"/>
<path d="M10 12L10 18" stroke="#FCF7F3"/>
<path d="M16 12L16 16" stroke="#FCF7F3"/>
<path d="M14 12L14 9" stroke="#FCF7F3"/>
<circle cx="6" cy="12" r="1.5" stroke="#FCF7F3"/>
<circle cx="12" cy="12" r="1.5" stroke="#FCF7F3"/>
<circle cx="18" cy="12" r="1.5" stroke="#FCF7F3"/>
<circle cx="8" cy="5" r="1" fill="#FCF7F3"/>
<circle cx="1" cy="1" r="1" transform="matrix(1 0 0 -1 9 18)" fill="#FCF7F3"/>
<circle cx="1" cy="1" r="1" transform="matrix(1 0 0 -1 15 17)" fill="#FCF7F3"/>
<circle cx="14" cy="9" r="1" fill="#FCF7F3"/>
</svg>
