<svg width="24" height="23" viewBox="0 0 24 23" fill="none" xmlns="http://www.w3.org/2000/svg">
<path d="M11.1398 4.627C11.4013 3.791 12.5392 3.791 12.8006 4.627L13.1459 5.73326C13.2482 6.0606 13.5181 6.29584 13.8374 6.34933L13.9764 6.36085H15.0958C15.9412 6.36114 16.2926 7.48559 15.6091 8.00252L14.7036 8.68684L14.5971 8.78169C14.3694 9.02007 14.2842 9.37469 14.3865 9.7018L14.7318 10.8081C14.9767 11.592 14.1833 12.2519 13.5194 11.9055L13.3889 11.823L12.4835 11.1387C12.1775 10.9076 11.7629 10.9076 11.457 11.1387L10.5515 11.823L10.4211 11.9055C9.80125 12.2288 9.06829 11.6752 9.17288 10.9623L9.20868 10.8081L9.55398 9.7018C9.65621 9.37469 9.57109 9.02007 9.34339 8.78169L9.23682 8.68684L8.33137 8.00252C7.69052 7.51789 7.95934 6.49891 8.69201 6.37326L8.84463 6.36085H9.96408L10.1031 6.34933C10.3768 6.30347 10.6142 6.12444 10.7408 5.868L10.7945 5.73326L11.1398 4.627ZM11.6241 6.01426C11.3903 6.76202 10.7203 7.26844 9.96408 7.26856H8.84463L9.75008 7.95199L9.86092 8.0433C10.3923 8.51697 10.6035 9.2808 10.3844 9.98192L10.0391 11.0882L10.9437 10.4047L11.0614 10.3232C11.6589 9.94415 12.4231 9.97142 12.9967 10.4047L13.9013 11.0882L13.556 9.98192C13.3223 9.23394 13.5784 8.41427 14.1904 7.95199L15.0958 7.26856H13.9764C13.2674 7.26845 12.634 6.82342 12.365 6.15166L12.3164 6.01426L11.9702 4.908L11.6241 6.01426Z" fill="#FCF7F3"/>
<path d="M16.1991 11.627C16.4606 10.791 17.5985 10.791 17.86 11.627L18.2053 12.7333C18.3076 13.0606 18.5775 13.2958 18.8967 13.3493L19.0357 13.3609H20.1551C21.0005 13.3611 21.352 14.4856 20.6684 15.0025L19.763 15.6868L19.6564 15.7817C19.4287 16.0201 19.3436 16.3747 19.4458 16.7018L19.7911 17.8081C20.036 18.592 19.2426 19.2519 18.5787 18.9055L18.4483 18.823L17.5428 18.1387C17.2368 17.9076 16.8223 17.9076 16.5163 18.1387L15.6108 18.823L15.4804 18.9055C14.8606 19.2288 14.1276 18.6752 14.2322 17.9623L14.268 17.8081L14.6133 16.7018C14.7155 16.3747 14.6304 16.0201 14.4027 15.7817L14.2961 15.6868L13.3907 15.0025C12.7499 14.5179 13.0187 13.4989 13.7513 13.3733L13.904 13.3609H15.0234L15.1624 13.3493C15.4361 13.3035 15.6735 13.1244 15.8001 12.868L15.8538 12.7333L16.1991 11.627ZM16.6834 13.0143C16.4496 13.762 15.7797 14.2684 15.0234 14.2686H13.904L14.8094 14.952L14.9202 15.0433C15.4516 15.517 15.6628 16.2808 15.4437 16.9819L15.0984 18.0882L16.003 17.4047L16.1207 17.3232C16.7182 16.9441 17.4824 16.9714 18.0561 17.4047L18.9607 18.0882L18.6154 16.9819C18.3816 16.2339 18.6377 15.4143 19.2497 14.952L20.1551 14.2686H19.0357C18.3267 14.2685 17.6934 13.8234 17.4243 13.1517L17.3757 13.0143L17.0296 11.908L16.6834 13.0143Z" fill="#FCF7F3"/>
<path d="M6.1398 11.627C6.40125 10.791 7.5392 10.791 7.80065 11.627L8.14595 12.7333C8.24824 13.0606 8.51814 13.2958 8.8374 13.3493L8.97637 13.3609H10.0958C10.9412 13.3611 11.2926 14.4856 10.6091 15.0025L9.70363 15.6868L9.59706 15.7817C9.36936 16.0201 9.28424 16.3747 9.38647 16.7018L9.73176 17.8081C9.97666 18.592 9.18332 19.2519 8.51938 18.9055L8.38893 18.823L7.48348 18.1387C7.1775 17.9076 6.76294 17.9076 6.45697 18.1387L5.55151 18.823L5.42107 18.9055C4.80125 19.2288 4.06829 18.6752 4.17288 17.9623L4.20868 17.8081L4.55398 16.7018C4.65621 16.3747 4.57109 16.0201 4.34339 15.7817L4.23682 15.6868L3.33137 15.0025C2.69052 14.5179 2.95934 13.4989 3.69201 13.3733L3.84463 13.3609H4.96408L5.10305 13.3493C5.37675 13.3035 5.61422 13.1244 5.74079 12.868L5.7945 12.7333L6.1398 11.627ZM6.62407 13.0143C6.39027 13.762 5.72035 14.2684 4.96408 14.2686H3.84463L4.75008 14.952L4.86092 15.0433C5.39226 15.517 5.6035 16.2808 5.38441 16.9819L5.03911 18.0882L5.94371 17.4047L6.06136 17.3232C6.65887 16.9441 7.42309 16.9714 7.99674 17.4047L8.90134 18.0882L8.55604 16.9819C8.32231 16.2339 8.57839 15.4143 9.19037 14.952L10.0958 14.2686H8.97637C8.26737 14.2685 7.63403 13.8234 7.36497 13.1517L7.31638 13.0143L6.97022 11.908L6.62407 13.0143Z" fill="#FCF7F3"/>
</svg>
