<svg width="24" height="24" viewBox="0 0 24 24" fill="none" xmlns="http://www.w3.org/2000/svg">
<path d="M13.75 3V3C16.3213 3 17.6069 3 18.5564 3.56909C19.1206 3.90726 19.5927 4.37937 19.9309 4.94359C20.5 5.89305 20.5 7.1787 20.5 9.75V10" stroke="#FCF7F3" stroke-linecap="round"/>
<path d="M13.75 21V21C16.3213 21 17.6069 21 18.5564 20.4309C19.1206 20.0927 19.5927 19.6206 19.9309 19.0564C20.5 18.1069 20.5 16.8213 20.5 14.25V14" stroke="#FCF7F3" stroke-linecap="round"/>
<path d="M9.75 3V3C7.1787 3 5.89305 3 4.94359 3.56909C4.37937 3.90726 3.90726 4.37937 3.56909 4.94359C3 5.89305 3 7.1787 3 9.75V10" stroke="#FCF7F3" stroke-linecap="round"/>
<path d="M9.75 21V21C7.1787 21 5.89305 21 4.94359 20.4309C4.37937 20.0927 3.90726 19.6206 3.56909 19.0564C3 18.1069 3 16.8213 3 14.25V14" stroke="#FCF7F3" stroke-linecap="round"/>
<circle cx="12" cy="12" r="3.5" stroke="#FCF7F3"/>
</svg>
