<svg width="24" height="24" viewBox="0 0 24 24" fill="none" xmlns="http://www.w3.org/2000/svg">
<path d="M6 10V15C6 16.8638 6 17.7956 6.30448 18.5307C6.71046 19.5108 7.48915 20.2895 8.46927 20.6955C9.20435 21 10.1362 21 12 21V21C13.8638 21 14.7956 21 15.5307 20.6955C16.5108 20.2895 17.2895 19.5108 17.6955 18.5307C18 17.7956 18 16.8638 18 15V10" stroke="#FCF7F3" stroke-linecap="round"/>
<path d="M14 13V17" stroke="#FCF7F3" stroke-linecap="round"/>
<path d="M10 13V17" stroke="#FCF7F3" stroke-linecap="round"/>
<path d="M6 7V7C6 6.44772 6.44772 6 7 6H17C17.5523 6 18 6.44772 18 7V7" stroke="#FCF7F3" stroke-linecap="round"/>
<path d="M10 4V4C10 3.44772 10.4477 3 11 3H13C13.5523 3 14 3.44772 14 4V4" stroke="#FCF7F3" stroke-linecap="round"/>
</svg>
