<svg width="24" height="24" viewBox="0 0 24 24" fill="none" xmlns="http://www.w3.org/2000/svg">
<path d="M3 11C3 7.22876 3 5.34315 4.17157 4.17157C5.34315 3 7.22876 3 11 3H13C16.7712 3 18.6569 3 19.8284 4.17157C21 5.34315 21 7.22876 21 11V13C21 16.7712 21 18.6569 19.8284 19.8284C18.6569 21 16.7712 21 13 21H11C7.22876 21 5.34315 21 4.17157 19.8284C3 18.6569 3 16.7712 3 13V11Z" stroke="#FCF7F3"/>
<path d="M11.2305 14.3096C10.9031 14.5715 10.418 14.3382 10.418 13.9189L10.418 10.0811C10.418 9.68814 10.844 9.45817 11.167 9.64648L11.2305 9.69043L13.6299 11.6094C13.8487 11.7845 13.876 12.098 13.7119 12.3076L13.6299 12.3906L11.2305 14.3096Z" stroke="#FCF7F3" stroke-linecap="round" stroke-linejoin="round"/>
</svg>
