<svg width="24" height="24" viewBox="0 0 24 24" fill="none" xmlns="http://www.w3.org/2000/svg">
<rect x="8" y="13" width="5" height="5" rx="2.5" transform="rotate(90 8 13)" stroke="#2B2B2B"/>
<rect x="16" y="12" width="5" height="5" rx="2.5" transform="rotate(-90 16 12)" stroke="#2B2B2B"/>
<path d="M17 11L15.8462 12.5C15.5414 12.8962 15.389 13.0942 15.242 13.2233C14.4873 13.8853 13.3588 13.8853 12.6042 13.2233C12.4571 13.0942 12.3047 12.8962 12 12.5V12.5C11.6953 12.1038 11.5429 11.9058 11.3958 11.7767C10.6412 11.1147 9.51269 11.1147 8.75803 11.7767C8.61096 11.9058 8.45859 12.1038 8.15385 12.5L7 14" stroke="#2B2B2B"/>
</svg>
