<svg width="38" height="38" viewBox="0 0 38 38" fill="none" xmlns="http://www.w3.org/2000/svg">
<path d="M16.6904 25.2291C16.4285 24.9017 16.6618 24.4166 17.0811 24.4166L20.9189 24.4166C21.3119 24.4166 21.5418 24.8427 21.3535 25.1656L21.3096 25.2291L19.3906 27.6285C19.2155 27.8473 18.902 27.8746 18.6924 27.7106L18.6094 27.6285L16.6904 25.2291Z" stroke="#2B2B2B" stroke-linecap="round" stroke-linejoin="round"/>
<path d="M16.6904 12.7709C16.4285 13.0983 16.6618 13.5834 17.0811 13.5834L20.9189 13.5834C21.3119 13.5834 21.5418 13.1573 21.3535 12.8344L21.3096 12.7709L19.3906 10.3715C19.2155 10.1527 18.902 10.1254 18.6924 10.2894L18.6094 10.3715L16.6904 12.7709Z" stroke="#2B2B2B" stroke-linecap="round" stroke-linejoin="round"/>
<path d="M12.771 16.6904C13.0984 16.4285 13.5835 16.6618 13.5835 17.0811L13.5835 20.9189C13.5835 21.3119 13.1575 21.5418 12.8345 21.3535L12.771 21.3096L10.3716 19.3906C10.1528 19.2155 10.1255 18.902 10.2896 18.6924L10.3716 18.6094L12.771 16.6904Z" stroke="#2B2B2B" stroke-linecap="round" stroke-linejoin="round"/>
<path d="M25.229 16.6904C24.9016 16.4285 24.4165 16.6618 24.4165 17.0811L24.4165 20.9189C24.4165 21.3119 24.8425 21.5418 25.1655 21.3535L25.229 21.3096L27.6284 19.3906C27.8472 19.2155 27.8745 18.902 27.7104 18.6924L27.6284 18.6094L25.229 16.6904Z" stroke="#2B2B2B" stroke-linecap="round" stroke-linejoin="round"/>
</svg>
