<svg width="24" height="24" viewBox="0 0 24 24" fill="none" xmlns="http://www.w3.org/2000/svg">
<path d="M11.0489 4.69075C11.3484 3.76975 12.6518 3.76975 12.9513 4.69075L13.3468 5.9095C13.4639 6.27012 13.7731 6.52928 14.1388 6.58821L14.2979 6.60091H15.5802C16.5484 6.60122 16.951 7.84001 16.1681 8.4095L15.131 9.16341L15.0089 9.2679C14.7481 9.53052 14.6506 9.9212 14.7677 10.2816L15.1632 11.5003C15.4437 12.364 14.535 13.0909 13.7745 12.7093L13.6251 12.6185L12.588 11.8646C12.2375 11.61 11.7627 11.61 11.4122 11.8646L10.3751 12.6185L10.2257 12.7093C9.51573 13.0656 8.6762 12.4556 8.79599 11.6702L8.83701 11.5003L9.23252 10.2816C9.34961 9.9212 9.25211 9.53052 8.99131 9.2679L8.86924 9.16341L7.83213 8.4095C7.0981 7.8756 7.40601 6.75301 8.24521 6.61458L8.42002 6.60091H9.70224L9.86142 6.58821C10.1749 6.53769 10.4469 6.34045 10.5919 6.05794L10.6534 5.9095L11.0489 4.69075ZM11.6036 6.21907C11.3358 7.04287 10.5685 7.60079 9.70224 7.60091H8.42002L9.45713 8.35384L9.58408 8.45443C10.1927 8.97627 10.4346 9.81776 10.1837 10.5902L9.78818 11.8089L10.8243 11.056L10.9591 10.9661C11.6435 10.5486 12.5188 10.5786 13.1759 11.056L14.212 11.8089L13.8165 10.5902C13.5488 9.76613 13.8421 8.86312 14.5431 8.35384L15.5802 7.60091H14.2979C13.4858 7.60079 12.7604 7.11051 12.4522 6.37044L12.3966 6.21907L12.0001 5.00032L11.6036 6.21907Z" fill="#2B2B2B"/>
<path d="M16.0489 11.6908C16.3484 10.7697 17.6518 10.7697 17.9513 11.6908L18.3468 12.9095C18.4639 13.2701 18.7731 13.5293 19.1388 13.5882L19.2979 13.6009H20.5802C21.5484 13.6012 21.951 14.84 21.1681 15.4095L20.131 16.1634L20.0089 16.2679C19.7481 16.5305 19.6506 16.9212 19.7677 17.2816L20.1632 18.5003C20.4437 19.364 19.535 20.0909 18.7745 19.7093L18.6251 19.6185L17.588 18.8646C17.2375 18.61 16.7627 18.61 16.4122 18.8646L15.3751 19.6185L15.2257 19.7093C14.5157 20.0656 13.6762 19.4556 13.796 18.6702L13.837 18.5003L14.2325 17.2816C14.3496 16.9212 14.2521 16.5305 13.9913 16.2679L13.8692 16.1634L12.8321 15.4095C12.0981 14.8756 12.406 13.753 13.2452 13.6146L13.42 13.6009H14.7022L14.8614 13.5882C15.1749 13.5377 15.4469 13.3405 15.5919 13.0579L15.6534 12.9095L16.0489 11.6908ZM16.6036 13.2191C16.3358 14.0429 15.5685 14.6008 14.7022 14.6009H13.42L14.4571 15.3538L14.5841 15.4544C15.1927 15.9763 15.4346 16.8178 15.1837 17.5902L14.7882 18.8089L15.8243 18.056L15.9591 17.9661C16.6435 17.5486 17.5188 17.5786 18.1759 18.056L19.212 18.8089L18.8165 17.5902C18.5488 16.7661 18.8421 15.8631 19.5431 15.3538L20.5802 14.6009H19.2979C18.4858 14.6008 17.7604 14.1105 17.4522 13.3704L17.3966 13.2191L17.0001 12.0003L16.6036 13.2191Z" fill="#2B2B2B"/>
<path d="M6.04892 11.6908C6.34839 10.7697 7.6518 10.7697 7.95127 11.6908L8.34677 12.9095C8.46395 13.2701 8.77308 13.5293 9.13877 13.5882L9.29795 13.6009H10.5802C11.5484 13.6012 11.951 14.84 11.1681 15.4095L10.131 16.1634L10.0089 16.2679C9.74808 16.5305 9.65058 16.9212 9.76767 17.2816L10.1632 18.5003C10.4437 19.364 9.53498 20.0909 8.77451 19.7093L8.62509 19.6185L7.58799 18.8646C7.23751 18.61 6.76267 18.61 6.4122 18.8646L5.37509 19.6185L5.22568 19.7093C4.51573 20.0656 3.6762 19.4556 3.79599 18.6702L3.83701 18.5003L4.23252 17.2816C4.34961 16.9212 4.25211 16.5305 3.99131 16.2679L3.86924 16.1634L2.83213 15.4095C2.0981 14.8756 2.40601 13.753 3.24521 13.6146L3.42002 13.6009H4.70224L4.86142 13.5882C5.17492 13.5377 5.44692 13.3405 5.59189 13.0579L5.65341 12.9095L6.04892 11.6908ZM6.60361 13.2191C6.33581 14.0429 5.56848 14.6008 4.70224 14.6009H3.42002L4.45713 15.3538L4.58408 15.4544C5.19268 15.9763 5.43464 16.8178 5.18369 17.5902L4.78818 18.8089L5.82431 18.056L5.95908 17.9661C6.64347 17.5486 7.51881 17.5786 8.17588 18.056L9.21201 18.8089L8.8165 17.5902C8.54878 16.7661 8.8421 15.8631 9.54306 15.3538L10.5802 14.6009H9.29795C8.48585 14.6008 7.76042 14.1105 7.45224 13.3704L7.39658 13.2191L7.00009 12.0003L6.60361 13.2191Z" fill="#2B2B2B"/>
</svg>
