<svg width="32" height="32" viewBox="0 0 32 32" fill="none" xmlns="http://www.w3.org/2000/svg">
<path d="M11.0993 18.0639C10.7725 18.0639 10.492 17.9922 10.2576 17.8487C10.0247 17.7053 9.84499 17.5071 9.71857 17.2543C9.59357 17 9.53107 16.7074 9.53107 16.3764C9.53107 16.044 9.59499 15.7507 9.72283 15.4964C9.85067 15.2408 10.0311 15.0419 10.264 14.8999C10.4984 14.7564 10.7754 14.6847 11.095 14.6847C11.3606 14.6847 11.5957 14.7337 11.8002 14.8317C12.0062 14.9283 12.1703 15.0653 12.2924 15.2429C12.4146 15.419 12.4842 15.625 12.5012 15.8608H11.764C11.7342 15.7031 11.6632 15.5717 11.551 15.4666C11.4402 15.3601 11.2917 15.3068 11.1056 15.3068C10.948 15.3068 10.8095 15.3494 10.6902 15.4347C10.5708 15.5185 10.4778 15.6392 10.411 15.7969C10.3457 15.9545 10.313 16.1435 10.313 16.3636C10.313 16.5866 10.3457 16.7784 10.411 16.9389C10.4764 17.098 10.568 17.2209 10.6859 17.3075C10.8052 17.3928 10.9451 17.4354 11.1056 17.4354C11.2193 17.4354 11.3208 17.4141 11.4103 17.3714C11.5012 17.3274 11.5772 17.2642 11.6383 17.1818C11.6994 17.0994 11.7413 16.9993 11.764 16.8814H12.5012C12.4828 17.1129 12.4146 17.3182 12.2967 17.4972C12.1788 17.6747 12.0183 17.8139 11.8152 17.9148C11.612 18.0142 11.3734 18.0639 11.0993 18.0639ZM14.5621 18.0639C14.2425 18.0639 13.9656 17.9936 13.7312 17.853C13.4968 17.7124 13.315 17.5156 13.1857 17.2628C13.0579 17.0099 12.994 16.7145 12.994 16.3764C12.994 16.0384 13.0579 15.7422 13.1857 15.4879C13.315 15.2337 13.4968 15.0362 13.7312 14.8956C13.9656 14.755 14.2425 14.6847 14.5621 14.6847C14.8817 14.6847 15.1587 14.755 15.3931 14.8956C15.6275 15.0362 15.8086 15.2337 15.9364 15.4879C16.0657 15.7422 16.1303 16.0384 16.1303 16.3764C16.1303 16.7145 16.0657 17.0099 15.9364 17.2628C15.8086 17.5156 15.6275 17.7124 15.3931 17.853C15.1587 17.9936 14.8817 18.0639 14.5621 18.0639ZM14.5664 17.446C14.7397 17.446 14.8846 17.3984 15.0011 17.3033C15.1175 17.2067 15.2042 17.0774 15.261 16.9155C15.3192 16.7536 15.3484 16.5732 15.3484 16.3743C15.3484 16.174 15.3192 15.9929 15.261 15.831C15.2042 15.6676 15.1175 15.5376 15.0011 15.4411C14.8846 15.3445 14.7397 15.2962 14.5664 15.2962C14.3888 15.2962 14.2411 15.3445 14.1232 15.4411C14.0067 15.5376 13.9194 15.6676 13.8612 15.831C13.8043 15.9929 13.7759 16.174 13.7759 16.3743C13.7759 16.5732 13.8043 16.7536 13.8612 16.9155C13.9194 17.0774 14.0067 17.2067 14.1232 17.3033C14.2411 17.3984 14.3888 17.446 14.5664 17.446ZM17.9995 18.0575C17.7424 18.0575 17.5123 17.9915 17.3091 17.8594C17.106 17.7273 16.9455 17.5355 16.8276 17.2841C16.7097 17.0327 16.6507 16.7273 16.6507 16.3679C16.6507 16.0043 16.7104 15.6974 16.8297 15.4474C16.9505 15.196 17.1131 15.0064 17.3176 14.8786C17.5222 14.7493 17.7502 14.6847 18.0016 14.6847C18.1934 14.6847 18.351 14.7173 18.4746 14.7827C18.5982 14.8466 18.6962 14.924 18.7686 15.0149C18.8411 15.1044 18.8972 15.1889 18.937 15.2685H18.9689V13.6364H19.7424V18H18.9838V17.4844H18.937C18.8972 17.5639 18.8397 17.6484 18.7644 17.7379C18.6891 17.826 18.5897 17.9013 18.4661 17.9638C18.3425 18.0263 18.187 18.0575 17.9995 18.0575ZM18.2147 17.4247C18.378 17.4247 18.5172 17.3807 18.6323 17.2926C18.7473 17.2031 18.8347 17.0788 18.8944 16.9197C18.954 16.7607 18.9838 16.5753 18.9838 16.3636C18.9838 16.152 18.954 15.968 18.8944 15.8118C18.8361 15.6555 18.7495 15.5341 18.6344 15.4474C18.5208 15.3608 18.3809 15.3175 18.2147 15.3175C18.0428 15.3175 17.8993 15.3622 17.7843 15.4517C17.6692 15.5412 17.5826 15.6648 17.5243 15.8224C17.4661 15.9801 17.437 16.1605 17.437 16.3636C17.437 16.5682 17.4661 16.7507 17.5243 16.9112C17.584 17.0703 17.6713 17.196 17.7864 17.2884C17.9029 17.3793 18.0456 17.4247 18.2147 17.4247ZM22.0131 18.0639C21.685 18.0639 21.4016 17.9957 21.163 17.8594C20.9258 17.7216 20.7433 17.527 20.6154 17.2756C20.4876 17.0227 20.4237 16.7251 20.4237 16.3828C20.4237 16.0462 20.4876 15.7507 20.6154 15.4964C20.7447 15.2408 20.9251 15.0419 21.1566 14.8999C21.3881 14.7564 21.6602 14.6847 21.9727 14.6847C22.1744 14.6847 22.3647 14.7173 22.5437 14.7827C22.7241 14.8466 22.8832 14.946 23.021 15.081C23.1602 15.2159 23.2695 15.3878 23.3491 15.5966C23.4286 15.804 23.4684 16.0511 23.4684 16.3381V16.5746H20.7859V16.0547H22.729C22.7276 15.907 22.6957 15.7756 22.6332 15.6605C22.5707 15.544 22.4833 15.4524 22.3711 15.3857C22.2603 15.3189 22.131 15.2855 21.9833 15.2855C21.8256 15.2855 21.6871 15.3239 21.5678 15.4006C21.4485 15.4759 21.3555 15.5753 21.2887 15.6989C21.2234 15.821 21.19 15.9553 21.1886 16.1016V16.5554C21.1886 16.7457 21.2234 16.9091 21.293 17.0455C21.3626 17.1804 21.4599 17.2841 21.5849 17.3565C21.7099 17.4276 21.8562 17.4631 22.0238 17.4631C22.136 17.4631 22.2376 17.4474 22.3285 17.4162C22.4194 17.3835 22.4982 17.3359 22.565 17.2734C22.6317 17.2109 22.6822 17.1335 22.7163 17.0412L23.4364 17.1222C23.391 17.3125 23.3043 17.4787 23.1765 17.6207C23.0501 17.7614 22.8881 17.8707 22.6907 17.9489C22.4933 18.0256 22.2674 18.0639 22.0131 18.0639Z" fill="#2B2B2B"/>
</svg>
