<svg width="32" height="32" viewBox="0 0 32 32" fill="none" xmlns="http://www.w3.org/2000/svg">
<path d="M14.1831 15.5923L13.48 15.669C13.4601 15.598 13.4253 15.5312 13.3756 15.4688C13.3273 15.4062 13.262 15.3558 13.1796 15.3175C13.0972 15.2791 12.9964 15.2599 12.877 15.2599C12.7165 15.2599 12.5816 15.2947 12.4722 15.3643C12.3643 15.4339 12.311 15.5241 12.3124 15.6349C12.311 15.7301 12.3458 15.8075 12.4168 15.8672C12.4893 15.9268 12.6086 15.9759 12.7748 16.0142L13.333 16.1335C13.6427 16.2003 13.8728 16.3061 14.0233 16.451C14.1753 16.5959 14.252 16.7855 14.2535 17.0199C14.252 17.2259 14.1917 17.4077 14.0724 17.5653C13.9545 17.7216 13.7904 17.8437 13.5802 17.9318C13.3699 18.0199 13.1285 18.0639 12.8557 18.0639C12.4552 18.0639 12.1327 17.9801 11.8884 17.8125C11.6441 17.6435 11.4985 17.4084 11.4516 17.1072L12.2037 17.0348C12.2378 17.1825 12.3103 17.294 12.4211 17.3693C12.5319 17.4446 12.676 17.4822 12.8536 17.4822C13.0368 17.4822 13.1839 17.4446 13.2947 17.3693C13.4069 17.294 13.463 17.201 13.463 17.0902C13.463 16.9964 13.4268 16.919 13.3543 16.858C13.2833 16.7969 13.1725 16.75 13.0219 16.7173L12.4637 16.6001C12.1498 16.5348 11.9175 16.4247 11.767 16.2699C11.6164 16.1136 11.5418 15.9162 11.5432 15.6776C11.5418 15.4759 11.5965 15.3011 11.7073 15.1534C11.8195 15.0043 11.9751 14.8892 12.1739 14.8082C12.3742 14.7259 12.605 14.6847 12.8664 14.6847C13.2499 14.6847 13.5518 14.7663 13.7719 14.9297C13.9935 15.093 14.1306 15.3139 14.1831 15.5923ZM16.317 18.0639C15.9974 18.0639 15.7204 17.9936 15.4861 17.853C15.2517 17.7124 15.0699 17.5156 14.9406 17.2628C14.8128 17.0099 14.7488 16.7145 14.7488 16.3764C14.7488 16.0384 14.8128 15.7422 14.9406 15.4879C15.0699 15.2337 15.2517 15.0362 15.4861 14.8956C15.7204 14.755 15.9974 14.6847 16.317 14.6847C16.6366 14.6847 16.9136 14.755 17.148 14.8956C17.3824 15.0362 17.5635 15.2337 17.6913 15.4879C17.8206 15.7422 17.8852 16.0384 17.8852 16.3764C17.8852 16.7145 17.8206 17.0099 17.6913 17.2628C17.5635 17.5156 17.3824 17.7124 17.148 17.853C16.9136 17.9936 16.6366 18.0639 16.317 18.0639ZM16.3213 17.446C16.4946 17.446 16.6395 17.3984 16.7559 17.3033C16.8724 17.2067 16.9591 17.0774 17.0159 16.9155C17.0741 16.7536 17.1032 16.5732 17.1032 16.3743C17.1032 16.174 17.0741 15.9929 17.0159 15.831C16.9591 15.6676 16.8724 15.5376 16.7559 15.4411C16.6395 15.3445 16.4946 15.2962 16.3213 15.2962C16.1437 15.2962 15.996 15.3445 15.8781 15.4411C15.7616 15.5376 15.6743 15.6676 15.616 15.831C15.5592 15.9929 15.5308 16.174 15.5308 16.3743C15.5308 16.5732 15.5592 16.7536 15.616 16.9155C15.6743 17.0774 15.7616 17.2067 15.8781 17.3033C15.996 17.3984 16.1437 17.446 16.3213 17.446ZM19.3112 16.0824V18H18.5399V14.7273H19.2771V15.2834H19.3154C19.3907 15.1001 19.5107 14.9545 19.6755 14.8466C19.8417 14.7386 20.047 14.6847 20.2913 14.6847C20.5171 14.6847 20.7139 14.733 20.8815 14.8295C21.0505 14.9261 21.1812 15.0661 21.2735 15.2493C21.3673 15.4325 21.4134 15.6548 21.412 15.9162V18H20.6407V16.0355C20.6407 15.8168 20.5839 15.6456 20.4703 15.522C20.358 15.3984 20.2025 15.3366 20.0036 15.3366C19.8687 15.3366 19.7487 15.3665 19.6436 15.4261C19.5399 15.4844 19.4582 15.5689 19.3985 15.6797C19.3403 15.7905 19.3112 15.9247 19.3112 16.0824Z" fill="#2B2B2B"/>
</svg>
