<svg width="32" height="32" viewBox="0 0 32 32" fill="none" xmlns="http://www.w3.org/2000/svg">
<path d="M11.8157 14.7273L10.6502 18H9.79794L8.63246 14.7273H9.4549L10.207 17.1584H10.2411L10.9954 14.7273H11.8157ZM12.3494 18V14.7273H13.1207V18H12.3494ZM12.7372 14.2628C12.6151 14.2628 12.5099 14.2223 12.4219 14.1413C12.3338 14.0589 12.2898 13.9602 12.2898 13.8452C12.2898 13.7287 12.3338 13.63 12.4219 13.549C12.5099 13.4666 12.6151 13.4254 12.7372 13.4254C12.8608 13.4254 12.9659 13.4666 13.0526 13.549C13.1406 13.63 13.1847 13.7287 13.1847 13.8452C13.1847 13.9602 13.1406 14.0589 13.0526 14.1413C12.9659 14.2223 12.8608 14.2628 12.7372 14.2628ZM15.1284 18.0575C14.8713 18.0575 14.6412 17.9915 14.438 17.8594C14.2349 17.7273 14.0744 17.5355 13.9565 17.2841C13.8386 17.0327 13.7797 16.7273 13.7797 16.3679C13.7797 16.0043 13.8393 15.6974 13.9586 15.4474C14.0794 15.196 14.242 15.0064 14.4466 14.8786C14.6511 14.7493 14.8791 14.6847 15.1305 14.6847C15.3223 14.6847 15.4799 14.7173 15.6035 14.7827C15.7271 14.8466 15.8251 14.924 15.8975 15.0149C15.97 15.1044 16.0261 15.1889 16.0659 15.2685H16.0978V13.6364H16.8713V18H16.1127V17.4844H16.0659C16.0261 17.5639 15.9686 17.6484 15.8933 17.7379C15.818 17.826 15.7186 17.9013 15.595 17.9638C15.4714 18.0263 15.3159 18.0575 15.1284 18.0575ZM15.3436 17.4247C15.5069 17.4247 15.6461 17.3807 15.7612 17.2926C15.8762 17.2031 15.9636 17.0788 16.0233 16.9197C16.0829 16.7607 16.1127 16.5753 16.1127 16.3636C16.1127 16.152 16.0829 15.968 16.0233 15.8118C15.965 15.6555 15.8784 15.5341 15.7633 15.4474C15.6497 15.3608 15.5098 15.3175 15.3436 15.3175C15.1717 15.3175 15.0282 15.3622 14.9132 15.4517C14.7981 15.5412 14.7115 15.6648 14.6532 15.8224C14.595 15.9801 14.5659 16.1605 14.5659 16.3636C14.5659 16.5682 14.595 16.7507 14.6532 16.9112C14.7129 17.0703 14.8002 17.196 14.9153 17.2884C15.0318 17.3793 15.1745 17.4247 15.3436 17.4247ZM19.142 18.0639C18.8139 18.0639 18.5305 17.9957 18.2919 17.8594C18.0547 17.7216 17.8722 17.527 17.7443 17.2756C17.6165 17.0227 17.5526 16.7251 17.5526 16.3828C17.5526 16.0462 17.6165 15.7507 17.7443 15.4964C17.8736 15.2408 18.054 15.0419 18.2855 14.8999C18.517 14.7564 18.7891 14.6847 19.1016 14.6847C19.3033 14.6847 19.4936 14.7173 19.6726 14.7827C19.853 14.8466 20.0121 14.946 20.1499 15.081C20.2891 15.2159 20.3984 15.3878 20.478 15.5966C20.5575 15.804 20.5973 16.0511 20.5973 16.3381V16.5746H17.9148V16.0547H19.858C19.8565 15.907 19.8246 15.7756 19.7621 15.6605C19.6996 15.544 19.6122 15.4524 19.5 15.3857C19.3892 15.3189 19.2599 15.2855 19.1122 15.2855C18.9545 15.2855 18.8161 15.3239 18.6967 15.4006C18.5774 15.4759 18.4844 15.5753 18.4176 15.6989C18.3523 15.821 18.3189 15.9553 18.3175 16.1016V16.5554C18.3175 16.7457 18.3523 16.9091 18.4219 17.0455C18.4915 17.1804 18.5888 17.2841 18.7138 17.3565C18.8388 17.4276 18.9851 17.4631 19.1527 17.4631C19.2649 17.4631 19.3665 17.4474 19.4574 17.4162C19.5483 17.3835 19.6271 17.3359 19.6939 17.2734C19.7607 17.2109 19.8111 17.1335 19.8452 17.0412L20.5653 17.1222C20.5199 17.3125 20.4332 17.4787 20.3054 17.6207C20.179 17.7614 20.017 17.8707 19.8196 17.9489C19.6222 18.0256 19.3963 18.0639 19.142 18.0639ZM22.6774 18.0639C22.3578 18.0639 22.0808 17.9936 21.8464 17.853C21.612 17.7124 21.4302 17.5156 21.301 17.2628C21.1731 17.0099 21.1092 16.7145 21.1092 16.3764C21.1092 16.0384 21.1731 15.7422 21.301 15.4879C21.4302 15.2337 21.612 15.0362 21.8464 14.8956C22.0808 14.755 22.3578 14.6847 22.6774 14.6847C22.997 14.6847 23.274 14.755 23.5083 14.8956C23.7427 15.0362 23.9238 15.2337 24.0517 15.4879C24.1809 15.7422 24.2456 16.0384 24.2456 16.3764C24.2456 16.7145 24.1809 17.0099 24.0517 17.2628C23.9238 17.5156 23.7427 17.7124 23.5083 17.853C23.274 17.9936 22.997 18.0639 22.6774 18.0639ZM22.6816 17.446C22.8549 17.446 22.9998 17.3984 23.1163 17.3033C23.2328 17.2067 23.3194 17.0774 23.3762 16.9155C23.4345 16.7536 23.4636 16.5732 23.4636 16.3743C23.4636 16.174 23.4345 15.9929 23.3762 15.831C23.3194 15.6676 23.2328 15.5376 23.1163 15.4411C22.9998 15.3445 22.8549 15.2962 22.6816 15.2962C22.5041 15.2962 22.3564 15.3445 22.2385 15.4411C22.122 15.5376 22.0346 15.6676 21.9764 15.831C21.9196 15.9929 21.8912 16.174 21.8912 16.3743C21.8912 16.5732 21.9196 16.7536 21.9764 16.9155C22.0346 17.0774 22.122 17.2067 22.2385 17.3033C22.3564 17.3984 22.5041 17.446 22.6816 17.446Z" fill="#2B2B2B"/>
</svg>
