<svg width="32" height="32" viewBox="0 0 32 32" fill="none" xmlns="http://www.w3.org/2000/svg">
<path d="M8.03951 18.0575C7.7824 18.0575 7.55229 17.9915 7.34917 17.8594C7.14604 17.7273 6.98553 17.5355 6.86763 17.2841C6.74973 17.0327 6.69078 16.7273 6.69078 16.3679C6.69078 16.0043 6.75044 15.6974 6.86976 15.4474C6.9905 15.196 7.15314 15.0064 7.35769 14.8786C7.56223 14.7493 7.79022 14.6847 8.04164 14.6847C8.2334 14.6847 8.39107 14.7173 8.51465 14.7827C8.63823 14.8466 8.73624 14.924 8.80868 15.0149C8.88113 15.1044 8.93723 15.1889 8.97701 15.2685H9.00897V13.6364H9.7824V18H9.02388V17.4844H8.97701C8.93723 17.5639 8.87971 17.6484 8.80442 17.7379C8.72914 17.826 8.62971 17.9013 8.50613 17.9638C8.38255 18.0263 8.22701 18.0575 8.03951 18.0575ZM8.25471 17.4247C8.41806 17.4247 8.55726 17.3807 8.67232 17.2926C8.78738 17.2031 8.87473 17.0788 8.93439 16.9197C8.99405 16.7607 9.02388 16.5753 9.02388 16.3636C9.02388 16.152 8.99405 15.968 8.93439 15.8118C8.87615 15.6555 8.78951 15.5341 8.67445 15.4474C8.56081 15.3608 8.4209 15.3175 8.25471 15.3175C8.08283 15.3175 7.93936 15.3622 7.82431 15.4517C7.70925 15.5412 7.6226 15.6648 7.56436 15.8224C7.50613 15.9801 7.47701 16.1605 7.47701 16.3636C7.47701 16.5682 7.50613 16.7507 7.56436 16.9112C7.62402 17.0703 7.71138 17.196 7.82644 17.2884C7.94292 17.3793 8.08567 17.4247 8.25471 17.4247ZM12.0532 18.0639C11.7251 18.0639 11.4417 17.9957 11.203 17.8594C10.9658 17.7216 10.7833 17.527 10.6555 17.2756C10.5276 17.0227 10.4637 16.7251 10.4637 16.3828C10.4637 16.0462 10.5276 15.7507 10.6555 15.4964C10.7847 15.2408 10.9651 15.0419 11.1966 14.8999C11.4282 14.7564 11.7002 14.6847 12.0127 14.6847C12.2144 14.6847 12.4047 14.7173 12.5837 14.7827C12.7641 14.8466 12.9232 14.946 13.061 15.081C13.2002 15.2159 13.3096 15.3878 13.3891 15.5966C13.4687 15.804 13.5084 16.0511 13.5084 16.3381V16.5746H10.8259V16.0547H12.7691C12.7677 15.907 12.7357 15.7756 12.6732 15.6605C12.6107 15.544 12.5233 15.4524 12.4111 15.3857C12.3003 15.3189 12.1711 15.2855 12.0233 15.2855C11.8657 15.2855 11.7272 15.3239 11.6079 15.4006C11.4885 15.4759 11.3955 15.5753 11.3287 15.6989C11.2634 15.821 11.23 15.9553 11.2286 16.1016V16.5554C11.2286 16.7457 11.2634 16.9091 11.333 17.0455C11.4026 17.1804 11.4999 17.2841 11.6249 17.3565C11.7499 17.4276 11.8962 17.4631 12.0638 17.4631C12.176 17.4631 12.2776 17.4474 12.3685 17.4162C12.4594 17.3835 12.5383 17.3359 12.605 17.2734C12.6718 17.2109 12.7222 17.1335 12.7563 17.0412L13.4765 17.1222C13.431 17.3125 13.3444 17.4787 13.2165 17.6207C13.0901 17.7614 12.9282 17.8707 12.7307 17.9489C12.5333 18.0256 12.3074 18.0639 12.0532 18.0639ZM16.7476 15.5923L16.0445 15.669C16.0246 15.598 15.9898 15.5312 15.9401 15.4688C15.8918 15.4062 15.8264 15.3558 15.7441 15.3175C15.6617 15.2791 15.5608 15.2599 15.4415 15.2599C15.281 15.2599 15.146 15.2947 15.0367 15.3643C14.9287 15.4339 14.8754 15.5241 14.8769 15.6349C14.8754 15.7301 14.9102 15.8075 14.9813 15.8672C15.0537 15.9268 15.173 15.9759 15.3392 16.0142L15.8975 16.1335C16.2071 16.2003 16.4372 16.3061 16.5878 16.451C16.7398 16.5959 16.8165 16.7855 16.8179 17.0199C16.8165 17.2259 16.7561 17.4077 16.6368 17.5653C16.5189 17.7216 16.3548 17.8437 16.1446 17.9318C15.9344 18.0199 15.6929 18.0639 15.4202 18.0639C15.0196 18.0639 14.6972 17.9801 14.4529 17.8125C14.2085 17.6435 14.0629 17.4084 14.0161 17.1072L14.7682 17.0348C14.8023 17.1825 14.8747 17.294 14.9855 17.3693C15.0963 17.4446 15.2405 17.4822 15.4181 17.4822C15.6013 17.4822 15.7483 17.4446 15.8591 17.3693C15.9713 17.294 16.0274 17.201 16.0274 17.0902C16.0274 16.9964 15.9912 16.919 15.9188 16.858C15.8477 16.7969 15.7369 16.75 15.5864 16.7173L15.0281 16.6001C14.7142 16.5348 14.482 16.4247 14.3314 16.2699C14.1808 16.1136 14.1063 15.9162 14.1077 15.6776C14.1063 15.4759 14.161 15.3011 14.2718 15.1534C14.384 15.0043 14.5395 14.8892 14.7384 14.8082C14.9387 14.7259 15.1695 14.6847 15.4308 14.6847C15.8144 14.6847 16.1162 14.7663 16.3364 14.9297C16.558 15.093 16.695 15.3139 16.7476 15.5923ZM20.0406 15.5923L19.3374 15.669C19.3176 15.598 19.2828 15.5312 19.233 15.4688C19.1847 15.4062 19.1194 15.3558 19.037 15.3175C18.9546 15.2791 18.8538 15.2599 18.7345 15.2599C18.574 15.2599 18.439 15.2947 18.3296 15.3643C18.2217 15.4339 18.1684 15.5241 18.1698 15.6349C18.1684 15.7301 18.2032 15.8075 18.2742 15.8672C18.3467 15.9268 18.466 15.9759 18.6322 16.0142L19.1904 16.1335C19.5001 16.2003 19.7302 16.3061 19.8808 16.451C20.0328 16.5959 20.1095 16.7855 20.1109 17.0199C20.1095 17.2259 20.0491 17.4077 19.9298 17.5653C19.8119 17.7216 19.6478 17.8437 19.4376 17.9318C19.2274 18.0199 18.9859 18.0639 18.7132 18.0639C18.3126 18.0639 17.9901 17.9801 17.7458 17.8125C17.5015 17.6435 17.3559 17.4084 17.309 17.1072L18.0612 17.0348C18.0953 17.1825 18.1677 17.294 18.2785 17.3693C18.3893 17.4446 18.5335 17.4822 18.711 17.4822C18.8943 17.4822 19.0413 17.4446 19.1521 17.3693C19.2643 17.294 19.3204 17.201 19.3204 17.0902C19.3204 16.9964 19.2842 16.919 19.2117 16.858C19.1407 16.7969 19.0299 16.75 18.8794 16.7173L18.3211 16.6001C18.0072 16.5348 17.7749 16.4247 17.6244 16.2699C17.4738 16.1136 17.3992 15.9162 17.4007 15.6776C17.3992 15.4759 17.4539 15.3011 17.5647 15.1534C17.6769 15.0043 17.8325 14.8892 18.0313 14.8082C18.2316 14.7259 18.4624 14.6847 18.7238 14.6847C19.1073 14.6847 19.4092 14.7663 19.6294 14.9297C19.8509 15.093 19.988 15.3139 20.0406 15.5923ZM20.7469 18V14.7273H21.5182V18H20.7469ZM21.1347 14.2628C21.0125 14.2628 20.9074 14.2223 20.8193 14.1413C20.7313 14.0589 20.6872 13.9602 20.6872 13.8452C20.6872 13.7287 20.7313 13.63 20.8193 13.549C20.9074 13.4666 21.0125 13.4254 21.1347 13.4254C21.2583 13.4254 21.3634 13.4666 21.45 13.549C21.5381 13.63 21.5821 13.7287 21.5821 13.8452C21.5821 13.9602 21.5381 14.0589 21.45 14.1413C21.3634 14.2223 21.2583 14.2628 21.1347 14.2628ZM23.0827 16.0824V18H22.3113V14.7273H23.0486V15.2834H23.0869C23.1622 15.1001 23.2822 14.9545 23.447 14.8466C23.6132 14.7386 23.8184 14.6847 24.0628 14.6847C24.2886 14.6847 24.4854 14.733 24.653 14.8295C24.822 14.9261 24.9527 15.0661 25.045 15.2493C25.1388 15.4325 25.1849 15.6548 25.1835 15.9162V18H24.4122V16.0355C24.4122 15.8168 24.3554 15.6456 24.2417 15.522C24.1295 15.3984 23.974 15.3366 23.7751 15.3366C23.6402 15.3366 23.5202 15.3665 23.415 15.4261C23.3113 15.4844 23.2297 15.5689 23.17 15.6797C23.1118 15.7905 23.0827 15.9247 23.0827 16.0824Z" fill="#2B2B2B"/>
</svg>
