<svg width="32" height="32" viewBox="0 0 32 32" fill="none" xmlns="http://www.w3.org/2000/svg">
<path d="M12.4967 13.6364V18H11.7254V13.6364H12.4967ZM13.2899 18V14.7273H14.0612V18H13.2899ZM13.6776 14.2628C13.5555 14.2628 13.4504 14.2223 13.3623 14.1413C13.2742 14.0589 13.2302 13.9602 13.2302 13.8452C13.2302 13.7287 13.2742 13.63 13.3623 13.549C13.4504 13.4666 13.5555 13.4254 13.6776 13.4254C13.8012 13.4254 13.9063 13.4666 13.993 13.549C14.0811 13.63 14.1251 13.7287 14.1251 13.8452C14.1251 13.9602 14.0811 14.0589 13.993 14.1413C13.9063 14.2223 13.8012 14.2628 13.6776 14.2628ZM16.3032 18.0639C15.9751 18.0639 15.6917 17.9957 15.453 17.8594C15.2158 17.7216 15.0333 17.527 14.9055 17.2756C14.7776 17.0227 14.7137 16.7251 14.7137 16.3828C14.7137 16.0462 14.7776 15.7507 14.9055 15.4964C15.0347 15.2408 15.2151 15.0419 15.4466 14.8999C15.6782 14.7564 15.9502 14.6847 16.2627 14.6847C16.4644 14.6847 16.6547 14.7173 16.8337 14.7827C17.0141 14.8466 17.1732 14.946 17.311 15.081C17.4502 15.2159 17.5596 15.3878 17.6391 15.5966C17.7187 15.804 17.7584 16.0511 17.7584 16.3381V16.5746H15.0759V16.0547H17.0191C17.0177 15.907 16.9857 15.7756 16.9232 15.6605C16.8607 15.544 16.7733 15.4524 16.6611 15.3857C16.5503 15.3189 16.4211 15.2855 16.2733 15.2855C16.1157 15.2855 15.9772 15.3239 15.8579 15.4006C15.7385 15.4759 15.6455 15.5753 15.5787 15.6989C15.5134 15.821 15.48 15.9553 15.4786 16.1016V16.5554C15.4786 16.7457 15.5134 16.9091 15.583 17.0455C15.6526 17.1804 15.7499 17.2841 15.8749 17.3565C15.9999 17.4276 16.1462 17.4631 16.3138 17.4631C16.426 17.4631 16.5276 17.4474 16.6185 17.4162C16.7094 17.3835 16.7883 17.3359 16.855 17.2734C16.9218 17.2109 16.9722 17.1335 17.0063 17.0412L17.7265 17.1222C17.681 17.3125 17.5944 17.4787 17.4665 17.6207C17.3401 17.7614 17.1782 17.8707 16.9807 17.9489C16.7833 18.0256 16.5574 18.0639 16.3032 18.0639ZM19.1823 16.0824V18H18.411V14.7273H19.1482V15.2834H19.1865C19.2618 15.1001 19.3818 14.9545 19.5466 14.8466C19.7128 14.7386 19.9181 14.6847 20.1624 14.6847C20.3882 14.6847 20.585 14.733 20.7526 14.8295C20.9216 14.9261 21.0523 15.0661 21.1446 15.2493C21.2384 15.4325 21.2845 15.6548 21.2831 15.9162V18H20.5118V16.0355C20.5118 15.8168 20.455 15.6456 20.3414 15.522C20.2291 15.3984 20.0736 15.3366 19.8747 15.3366C19.7398 15.3366 19.6198 15.3665 19.5146 15.4261C19.411 15.4844 19.3293 15.5689 19.2696 15.6797C19.2114 15.7905 19.1823 15.9247 19.1823 16.0824Z" fill="#2B2B2B"/>
</svg>
