<svg width="32" height="32" viewBox="0 0 32 32" fill="none" xmlns="http://www.w3.org/2000/svg">
<path d="M12.3382 14.7273V15.3239H10.4568V14.7273H12.3382ZM10.9213 13.9432H11.6926V17.0156C11.6926 17.1193 11.7082 17.1989 11.7394 17.2543C11.7721 17.3082 11.8147 17.3452 11.8673 17.3651C11.9198 17.3849 11.9781 17.3949 12.042 17.3949C12.0903 17.3949 12.1343 17.3913 12.1741 17.3842C12.2153 17.3771 12.2465 17.3707 12.2678 17.3651L12.3978 17.968C12.3566 17.9822 12.2977 17.9979 12.221 18.0149C12.1457 18.032 12.0534 18.0419 11.944 18.0447C11.7508 18.0504 11.5768 18.0213 11.422 17.9574C11.2671 17.892 11.1443 17.7912 11.0534 17.6548C10.9639 17.5185 10.9198 17.348 10.9213 17.1435V13.9432ZM14.3969 18.0639C14.0688 18.0639 13.7854 17.9957 13.5468 17.8594C13.3096 17.7216 13.127 17.527 12.9992 17.2756C12.8714 17.0227 12.8074 16.7251 12.8074 16.3828C12.8074 16.0462 12.8714 15.7507 12.9992 15.4964C13.1285 15.2408 13.3089 15.0419 13.5404 14.8999C13.7719 14.7564 14.0439 14.6847 14.3564 14.6847C14.5581 14.6847 14.7485 14.7173 14.9275 14.7827C15.1079 14.8466 15.267 14.946 15.4047 15.081C15.5439 15.2159 15.6533 15.3878 15.7329 15.5966C15.8124 15.804 15.8522 16.0511 15.8522 16.3381V16.5746H13.1697V16.0547H15.1128C15.1114 15.907 15.0795 15.7756 15.017 15.6605C14.9545 15.544 14.8671 15.4524 14.7549 15.3857C14.6441 15.3189 14.5148 15.2855 14.3671 15.2855C14.2094 15.2855 14.0709 15.3239 13.9516 15.4006C13.8323 15.4759 13.7393 15.5753 13.6725 15.6989C13.6072 15.821 13.5738 15.9553 13.5724 16.1016V16.5554C13.5724 16.7457 13.6072 16.9091 13.6768 17.0455C13.7464 17.1804 13.8437 17.2841 13.9687 17.3565C14.0937 17.4276 14.24 17.4631 14.4076 17.4631C14.5198 17.4631 14.6214 17.4474 14.7123 17.4162C14.8032 17.3835 14.882 17.3359 14.9488 17.2734C15.0155 17.2109 15.066 17.1335 15.1001 17.0412L15.8202 17.1222C15.7748 17.3125 15.6881 17.4787 15.5603 17.6207C15.4339 17.7614 15.2719 17.8707 15.0745 17.9489C14.877 18.0256 14.6512 18.0639 14.3969 18.0639ZM17.0651 14.7273L17.7256 15.9354L18.3968 14.7273H19.2128L18.2263 16.3636L19.2298 18H18.4181L17.7256 16.8217L17.0395 18H16.2213L17.2185 16.3636L16.2469 14.7273H17.0651ZM21.4436 14.7273V15.3239H19.5622V14.7273H21.4436ZM20.0267 13.9432H20.798V17.0156C20.798 17.1193 20.8137 17.1989 20.8449 17.2543C20.8776 17.3082 20.9202 17.3452 20.9727 17.3651C21.0253 17.3849 21.0835 17.3949 21.1475 17.3949C21.1958 17.3949 21.2398 17.3913 21.2796 17.3842C21.3208 17.3771 21.352 17.3707 21.3733 17.3651L21.5033 17.968C21.4621 17.9822 21.4031 17.9979 21.3264 18.0149C21.2512 18.032 21.1588 18.0419 21.0494 18.0447C20.8563 18.0504 20.6823 18.0213 20.5274 17.9574C20.3726 17.892 20.2497 17.7912 20.1588 17.6548C20.0693 17.5185 20.0253 17.348 20.0267 17.1435V13.9432Z" fill="#2B2B2B"/>
</svg>
