<svg width="32" height="32" viewBox="0 0 32 32" fill="none" xmlns="http://www.w3.org/2000/svg">
<path d="M7.54572 18V14.7273H8.31703V18H7.54572ZM7.93351 14.2628C7.81135 14.2628 7.70623 14.2223 7.61816 14.1413C7.5301 14.0589 7.48606 13.9602 7.48606 13.8452C7.48606 13.7287 7.5301 13.63 7.61816 13.549C7.70623 13.4666 7.81135 13.4254 7.93351 13.4254C8.05708 13.4254 8.1622 13.4666 8.24885 13.549C8.33691 13.63 8.38095 13.7287 8.38095 13.8452C8.38095 13.9602 8.33691 14.0589 8.24885 14.1413C8.1622 14.2223 8.05708 14.2628 7.93351 14.2628ZM9.11017 18V14.7273H9.84739V15.2834H9.88574C9.95392 15.0959 10.0669 14.9496 10.2245 14.8445C10.3822 14.7379 10.5704 14.6847 10.7892 14.6847C11.0107 14.6847 11.1975 14.7386 11.3495 14.8466C11.5029 14.9531 11.6109 15.0987 11.6734 15.2834H11.7075C11.7799 15.1016 11.9021 14.9567 12.074 14.8487C12.2472 14.7393 12.4525 14.6847 12.6897 14.6847C12.9909 14.6847 13.2366 14.7798 13.4269 14.9702C13.6173 15.1605 13.7124 15.4382 13.7124 15.8033V18H12.939V15.9226C12.939 15.7195 12.885 15.571 12.7771 15.4773C12.6691 15.3821 12.537 15.3345 12.3808 15.3345C12.1947 15.3345 12.0491 15.3928 11.944 15.5092C11.8403 15.6243 11.7884 15.7741 11.7884 15.9588V18H11.032V15.8906C11.032 15.7216 10.9809 15.5866 10.8786 15.4858C10.7778 15.3849 10.6457 15.3345 10.4823 15.3345C10.3715 15.3345 10.2707 15.3629 10.1798 15.4197C10.0889 15.4751 10.0164 15.554 9.96245 15.6562C9.90847 15.7571 9.88148 15.875 9.88148 16.0099V18H9.11017ZM15.4367 18.0661C15.2293 18.0661 15.0425 18.0291 14.8763 17.9553C14.7116 17.88 14.5809 17.7692 14.4843 17.6229C14.3891 17.4766 14.3415 17.2962 14.3415 17.0817C14.3415 16.897 14.3756 16.7443 14.4438 16.6236C14.512 16.5028 14.605 16.4062 14.7229 16.3338C14.8408 16.2614 14.9736 16.2067 15.1214 16.1697C15.2705 16.1314 15.4246 16.1037 15.5837 16.0866C15.7755 16.0668 15.931 16.049 16.0503 16.0334C16.1697 16.0163 16.2563 15.9908 16.3103 15.9567C16.3657 15.9212 16.3934 15.8665 16.3934 15.7926V15.7798C16.3934 15.6193 16.3458 15.495 16.2506 15.407C16.1555 15.3189 16.0184 15.2749 15.8394 15.2749C15.6505 15.2749 15.5006 15.3161 15.3898 15.3984C15.2805 15.4808 15.2066 15.5781 15.1682 15.6903L14.4481 15.5881C14.5049 15.3892 14.5986 15.223 14.7293 15.0895C14.86 14.9545 15.0198 14.8537 15.2087 14.7869C15.3976 14.7188 15.6064 14.6847 15.8351 14.6847C15.9928 14.6847 16.1498 14.7031 16.306 14.7401C16.4623 14.777 16.605 14.8381 16.7343 14.9233C16.8635 15.0071 16.9672 15.1214 17.0454 15.2663C17.1249 15.4112 17.1647 15.5923 17.1647 15.8097V18H16.4232V17.5504H16.3976C16.3508 17.6413 16.2847 17.7266 16.1995 17.8061C16.1157 17.8842 16.0099 17.9474 15.882 17.9957C15.7556 18.0426 15.6072 18.0661 15.4367 18.0661ZM15.637 17.4993C15.7918 17.4993 15.926 17.4687 16.0397 17.4077C16.1533 17.3452 16.2407 17.2628 16.3018 17.1605C16.3643 17.0582 16.3955 16.9467 16.3955 16.826V16.4403C16.3714 16.4602 16.3302 16.4787 16.2719 16.4957C16.2151 16.5128 16.1512 16.5277 16.0802 16.5405C16.0091 16.5533 15.9388 16.5646 15.8692 16.5746C15.7996 16.5845 15.7393 16.593 15.6881 16.6001C15.5731 16.6158 15.4701 16.6413 15.3792 16.6768C15.2883 16.7124 15.2165 16.7621 15.164 16.826C15.1114 16.8885 15.0851 16.9695 15.0851 17.0689C15.0851 17.2109 15.137 17.3182 15.2407 17.3906C15.3444 17.4631 15.4765 17.4993 15.637 17.4993ZM19.3635 19.2955C19.0866 19.2955 18.8486 19.2578 18.6498 19.1825C18.4509 19.1087 18.2911 19.0092 18.1704 18.8842C18.0496 18.7592 17.9658 18.6207 17.9189 18.4688L18.6135 18.3004C18.6448 18.3643 18.6903 18.4276 18.7499 18.4901C18.8096 18.554 18.8898 18.6065 18.9907 18.6477C19.093 18.6903 19.2215 18.7116 19.3763 18.7116C19.5951 18.7116 19.7762 18.6584 19.9197 18.5518C20.0631 18.4467 20.1349 18.2734 20.1349 18.032V17.4119H20.0965C20.0567 17.4915 19.9985 17.5732 19.9218 17.657C19.8465 17.7408 19.7464 17.8111 19.6214 17.8679C19.4978 17.9247 19.3422 17.9531 19.1547 17.9531C18.9033 17.9531 18.6753 17.8942 18.4708 17.7763C18.2677 17.657 18.1057 17.4794 17.985 17.2436C17.8657 17.0064 17.806 16.7095 17.806 16.353C17.806 15.9936 17.8657 15.6903 17.985 15.4432C18.1057 15.1946 18.2684 15.0064 18.4729 14.8786C18.6775 14.7493 18.9055 14.6847 19.1569 14.6847C19.3486 14.6847 19.5063 14.7173 19.6299 14.7827C19.7549 14.8466 19.8543 14.924 19.9282 15.0149C20.002 15.1044 20.0581 15.1889 20.0965 15.2685H20.1391V14.7273H20.8998V18.0533C20.8998 18.3331 20.833 18.5646 20.6995 18.7479C20.566 18.9311 20.3834 19.0682 20.1519 19.1591C19.9204 19.25 19.6576 19.2955 19.3635 19.2955ZM19.3699 17.348C19.5333 17.348 19.6725 17.3082 19.7876 17.2287C19.9026 17.1491 19.99 17.0348 20.0496 16.8857C20.1093 16.7365 20.1391 16.5575 20.1391 16.3487C20.1391 16.1428 20.1093 15.9624 20.0496 15.8075C19.9914 15.6527 19.9047 15.5327 19.7897 15.4474C19.676 15.3608 19.5361 15.3175 19.3699 15.3175C19.1981 15.3175 19.0546 15.3622 18.9395 15.4517C18.8245 15.5412 18.7378 15.6641 18.6796 15.8203C18.6214 15.9751 18.5922 16.1513 18.5922 16.3487C18.5922 16.549 18.6214 16.7244 18.6796 16.875C18.7393 17.0241 18.8266 17.1406 18.9417 17.2244C19.0581 17.3068 19.2009 17.348 19.3699 17.348ZM23.1391 18.0639C22.811 18.0639 22.5276 17.9957 22.289 17.8594C22.0518 17.7216 21.8692 17.527 21.7414 17.2756C21.6135 17.0227 21.5496 16.7251 21.5496 16.3828C21.5496 16.0462 21.6135 15.7507 21.7414 15.4964C21.8706 15.2408 22.051 15.0419 22.2826 14.8999C22.5141 14.7564 22.7861 14.6847 23.0986 14.6847C23.3003 14.6847 23.4907 14.7173 23.6697 14.7827C23.8501 14.8466 24.0091 14.946 24.1469 15.081C24.2861 15.2159 24.3955 15.3878 24.4751 15.5966C24.5546 15.804 24.5944 16.0511 24.5944 16.3381V16.5746H21.9118V16.0547H23.855C23.8536 15.907 23.8216 15.7756 23.7591 15.6605C23.6966 15.544 23.6093 15.4524 23.4971 15.3857C23.3863 15.3189 23.257 15.2855 23.1093 15.2855C22.9516 15.2855 22.8131 15.3239 22.6938 15.4006C22.5745 15.4759 22.4814 15.5753 22.4147 15.6989C22.3493 15.821 22.316 15.9553 22.3145 16.1016V16.5554C22.3145 16.7457 22.3493 16.9091 22.4189 17.0455C22.4885 17.1804 22.5858 17.2841 22.7108 17.3565C22.8358 17.4276 22.9822 17.4631 23.1498 17.4631C23.262 17.4631 23.3635 17.4474 23.4545 17.4162C23.5454 17.3835 23.6242 17.3359 23.691 17.2734C23.7577 17.2109 23.8081 17.1335 23.8422 17.0412L24.5624 17.1222C24.517 17.3125 24.4303 17.4787 24.3025 17.6207C24.176 17.7614 24.0141 17.8707 23.8167 17.9489C23.6192 18.0256 23.3934 18.0639 23.1391 18.0639Z" fill="#2B2B2B"/>
</svg>
