<svg width="32" height="32" viewBox="0 0 32 32" fill="none" xmlns="http://www.w3.org/2000/svg">
<path d="M12.6645 18.0575C12.4074 18.0575 12.1773 17.9915 11.9742 17.8594C11.771 17.7273 11.6105 17.5355 11.4926 17.2841C11.3747 17.0327 11.3158 16.7273 11.3158 16.3679C11.3158 16.0043 11.3754 15.6974 11.4948 15.4474C11.6155 15.196 11.7781 15.0064 11.9827 14.8786C12.1872 14.7493 12.4152 14.6847 12.6666 14.6847C12.8584 14.6847 13.0161 14.7173 13.1396 14.7827C13.2632 14.8466 13.3612 14.924 13.4337 15.0149C13.5061 15.1044 13.5622 15.1889 13.602 15.2685H13.634V13.6364H14.4074V18H13.6489V17.4844H13.602C13.5622 17.5639 13.5047 17.6484 13.4294 17.7379C13.3541 17.826 13.2547 17.9013 13.1311 17.9638C13.0075 18.0263 12.852 18.0575 12.6645 18.0575ZM12.8797 17.4247C13.0431 17.4247 13.1823 17.3807 13.2973 17.2926C13.4124 17.2031 13.4997 17.0788 13.5594 16.9197C13.6191 16.7607 13.6489 16.5753 13.6489 16.3636C13.6489 16.152 13.6191 15.968 13.5594 15.8118C13.5012 15.6555 13.4145 15.5341 13.2994 15.4474C13.1858 15.3608 13.0459 15.3175 12.8797 15.3175C12.7078 15.3175 12.5644 15.3622 12.4493 15.4517C12.3343 15.5412 12.2476 15.6648 12.1894 15.8224C12.1311 15.9801 12.102 16.1605 12.102 16.3636C12.102 16.5682 12.1311 16.7507 12.1894 16.9112C12.249 17.0703 12.3364 17.196 12.4514 17.2884C12.5679 17.3793 12.7107 17.4247 12.8797 17.4247ZM16.6569 18.0639C16.3373 18.0639 16.0603 17.9936 15.8259 17.853C15.5915 17.7124 15.4097 17.5156 15.2805 17.2628C15.1526 17.0099 15.0887 16.7145 15.0887 16.3764C15.0887 16.0384 15.1526 15.7422 15.2805 15.4879C15.4097 15.2337 15.5915 15.0362 15.8259 14.8956C16.0603 14.755 16.3373 14.6847 16.6569 14.6847C16.9765 14.6847 17.2535 14.755 17.4878 14.8956C17.7222 15.0362 17.9033 15.2337 18.0312 15.4879C18.1604 15.7422 18.2251 16.0384 18.2251 16.3764C18.2251 16.7145 18.1604 17.0099 18.0312 17.2628C17.9033 17.5156 17.7222 17.7124 17.4878 17.853C17.2535 17.9936 16.9765 18.0639 16.6569 18.0639ZM16.6611 17.446C16.8344 17.446 16.9793 17.3984 17.0958 17.3033C17.2123 17.2067 17.2989 17.0774 17.3557 16.9155C17.414 16.7536 17.4431 16.5732 17.4431 16.3743C17.4431 16.174 17.414 15.9929 17.3557 15.831C17.2989 15.6676 17.2123 15.5376 17.0958 15.4411C16.9793 15.3445 16.8344 15.2962 16.6611 15.2962C16.4836 15.2962 16.3358 15.3445 16.218 15.4411C16.1015 15.5376 16.0141 15.6676 15.9559 15.831C15.8991 15.9929 15.8706 16.174 15.8706 16.3743C15.8706 16.5732 15.8991 16.7536 15.9559 16.9155C16.0141 17.0774 16.1015 17.2067 16.218 17.3033C16.3358 17.3984 16.4836 17.446 16.6611 17.446ZM20.3073 18.0639C19.9806 18.0639 19.7 17.9922 19.4656 17.8487C19.2327 17.7053 19.053 17.5071 18.9266 17.2543C18.8016 17 18.7391 16.7074 18.7391 16.3764C18.7391 16.044 18.803 15.7507 18.9308 15.4964C19.0587 15.2408 19.2391 15.0419 19.472 14.8999C19.7064 14.7564 19.9834 14.6847 20.303 14.6847C20.5686 14.6847 20.8037 14.7337 21.0083 14.8317C21.2142 14.9283 21.3783 15.0653 21.5004 15.2429C21.6226 15.419 21.6922 15.625 21.7093 15.8608H20.972C20.9422 15.7031 20.8712 15.5717 20.759 15.4666C20.6482 15.3601 20.4997 15.3068 20.3137 15.3068C20.156 15.3068 20.0175 15.3494 19.8982 15.4347C19.7789 15.5185 19.6858 15.6392 19.6191 15.7969C19.5537 15.9545 19.521 16.1435 19.521 16.3636C19.521 16.5866 19.5537 16.7784 19.6191 16.9389C19.6844 17.098 19.776 17.2209 19.8939 17.3075C20.0132 17.3928 20.1531 17.4354 20.3137 17.4354C20.4273 17.4354 20.5289 17.4141 20.6183 17.3714C20.7093 17.3274 20.7852 17.2642 20.8463 17.1818C20.9074 17.0994 20.9493 16.9993 20.972 16.8814H21.7093C21.6908 17.1129 21.6226 17.3182 21.5047 17.4972C21.3868 17.6747 21.2263 17.8139 21.0232 17.9148C20.82 18.0142 20.5814 18.0639 20.3073 18.0639Z" fill="#2B2B2B"/>
</svg>
