<svg width="24" height="24" viewBox="0 0 24 24" fill="none" xmlns="http://www.w3.org/2000/svg">
<path d="M8.5 16.5C8.225 16.5 7.9875 16.4042 7.7875 16.2125C7.59583 16.0125 7.5 15.775 7.5 15.5V8.5C7.5 8.225 7.59583 7.99167 7.7875 7.8C7.9875 7.6 8.225 7.5 8.5 7.5H15.5C15.775 7.5 16.0083 7.6 16.2 7.8C16.4 7.99167 16.5 8.225 16.5 8.5V15.5C16.5 15.775 16.4 16.0125 16.2 16.2125C16.0083 16.4042 15.775 16.5 15.5 16.5H8.5ZM8.5 15.5H15.5V8.5H8.5V15.5ZM9 14.5H15L13.125 12L11.625 14L10.5 12.5L9 14.5ZM8.5 15.5V8.5V15.5Z" fill="#2B2B2B"/>
</svg>
