<svg width="24" height="24" viewBox="0 0 24 24" fill="none" xmlns="http://www.w3.org/2000/svg">
<path d="M9.5 12C9.5 11.7239 9.72386 11.5 10 11.5C10.2761 11.5 10.5 11.7239 10.5 12L10.5 15C10.5 15.2761 10.2761 15.5 10 15.5C9.72386 15.5 9.5 15.2761 9.5 15L9.5 12Z" fill="#2B2B2B"/>
<path d="M13.5 12C13.5 11.7239 13.7239 11.5 14 11.5C14.2761 11.5 14.5 11.7239 14.5 12L14.5 15C14.5 15.2761 14.2761 15.5 14 15.5C13.7239 15.5 13.5 15.2761 13.5 15L13.5 12Z" fill="#2B2B2B"/>
<path d="M17.5 10C17.5 9.5411 17.5001 9.17188 17.5205 8.87207C17.5413 8.5677 17.5849 8.29782 17.6904 8.04297C17.7715 7.84735 17.8788 7.66645 18.0039 7.5H5.99609C6.12118 7.66645 6.22851 7.84735 6.30957 8.04297C6.41513 8.29782 6.45873 8.5677 6.47949 8.87207C6.49993 9.17188 6.5 9.5411 6.5 10V16C6.5 16.9569 6.50066 17.6244 6.56836 18.1279C6.63413 18.6171 6.75494 18.876 6.93945 19.0605C7.12396 19.2451 7.38289 19.3659 7.87207 19.4316C8.37563 19.4993 9.04308 19.5 10 19.5H14C14.9569 19.5 15.6244 19.4993 16.1279 19.4316C16.6171 19.3659 16.876 19.2451 17.0605 19.0605C17.2451 18.876 17.3659 18.6171 17.4316 18.1279C17.4993 17.6244 17.5 16.9569 17.5 16V10ZM18.5 16C18.5 16.9285 18.5006 17.6751 18.4219 18.2607C18.3412 18.8608 18.1689 19.3663 17.7676 19.7676C17.3663 20.1689 16.8608 20.3412 16.2607 20.4219C15.6751 20.5006 14.9285 20.5 14 20.5H10C9.07152 20.5 8.32489 20.5006 7.73926 20.4219C7.13919 20.3412 6.6337 20.1689 6.23242 19.7676C5.83114 19.3663 5.6588 18.8608 5.57812 18.2607C5.49943 17.6751 5.5 16.9285 5.5 16V10C5.5 9.52722 5.50002 9.1974 5.48242 8.93945C5.46512 8.68615 5.43241 8.53844 5.38574 8.42578C5.23351 8.05839 4.94161 7.76649 4.57422 7.61426C4.46156 7.56759 4.31385 7.53488 4.06055 7.51758C3.90504 7.50697 3.7234 7.50276 3.50007 7.50109C3.22393 7.49903 3 7.27614 3 7V7C3 6.72386 3.22386 6.5 3.5 6.5H20.5C20.7761 6.5 21 6.72386 21 7V7C21 7.27614 20.7761 7.49903 20.4999 7.50109C20.2766 7.50276 20.095 7.50697 19.9395 7.51758C19.6861 7.53488 19.5384 7.56759 19.4258 7.61426C19.0584 7.76649 18.7665 8.05839 18.6143 8.42578C18.5676 8.53844 18.5349 8.68615 18.5176 8.93945C18.5 9.1974 18.5 9.52722 18.5 10V16Z" fill="#2B2B2B"/>
<path d="M11.9998 2.5C11.5352 2.5 11.0749 2.53816 10.6883 2.6123C10.4951 2.64937 10.3162 2.6962 10.1619 2.75391C10.0164 2.80838 9.85433 2.88655 9.72737 3.00488C9.52549 3.19324 9.51368 3.51 9.70198 3.71191C9.89033 3.91378 10.2071 3.9246 10.409 3.73633C10.3962 3.74828 10.4172 3.72611 10.5125 3.69043C10.5995 3.65792 10.721 3.62461 10.8768 3.59473C11.1887 3.53491 11.5841 3.5 11.9998 3.5C12.4155 3.5 12.811 3.53491 13.1229 3.59473C13.2786 3.62461 13.4001 3.65792 13.4871 3.69043C13.5825 3.72611 13.6035 3.74828 13.5907 3.73633C13.7926 3.9246 14.1093 3.91379 14.2977 3.71191C14.486 3.51 14.4742 3.19324 14.2723 3.00488C14.1453 2.88655 13.9833 2.80838 13.8377 2.75391C13.6834 2.6962 13.5046 2.64937 13.3114 2.6123C12.9248 2.53816 12.4645 2.5 11.9998 2.5Z" fill="#2B2B2B"/>
</svg>
