<svg width="24" height="24" viewBox="0 0 24 24" fill="none" xmlns="http://www.w3.org/2000/svg">
<path d="M6 17L7.74684 14.4527C8.14408 13.8734 8.99906 13.8734 9.39628 14.4527L10.3183 15.7973C10.7155 16.3766 11.5705 16.3766 11.9677 15.7973L13.7468 13.2028C14.1441 12.6235 14.9991 12.6235 15.3963 13.2028L18 17" stroke="#2B2B2B" stroke-linecap="round"/>
<path d="M3 11C3 7.22876 3 5.34315 4.17157 4.17157C5.34315 3 7.22876 3 11 3H13C16.7712 3 18.6569 3 19.8284 4.17157C21 5.34315 21 7.22876 21 11V13C21 16.7712 21 18.6569 19.8284 19.8284C18.6569 21 16.7712 21 13 21H11C7.22876 21 5.34315 21 4.17157 19.8284C3 18.6569 3 16.7712 3 13V11Z" stroke="#2B2B2B"/>
<circle cx="9" cy="9" r="2.5" stroke="#2B2B2B"/>
</svg>
