<svg width="32" height="32" viewBox="0 0 32 32" fill="none" xmlns="http://www.w3.org/2000/svg">
<path d="M7 15C7 11.2288 7 9.34315 8.17157 8.17157C9.34315 7 11.2288 7 15 7H17C20.7712 7 22.6569 7 23.8284 8.17157C25 9.34315 25 11.2288 25 15V17C25 20.7712 25 22.6569 23.8284 23.8284C22.6569 25 20.7712 25 17 25H15C11.2288 25 9.34315 25 8.17157 23.8284C7 22.6569 7 20.7712 7 17V15Z" stroke="#2B2B2B"/>
<path d="M15.2305 18.3096C14.9031 18.5715 14.418 18.3382 14.418 17.9189L14.418 14.0811C14.418 13.6881 14.844 13.4582 15.167 13.6465L15.2305 13.6904L17.6299 15.6094C17.8487 15.7845 17.876 16.098 17.7119 16.3076L17.6299 16.3906L15.2305 18.3096Z" stroke="#2B2B2B" stroke-linecap="round" stroke-linejoin="round"/>
</svg>
