<svg width="32" height="32" viewBox="0 0 32 32" fill="none" xmlns="http://www.w3.org/2000/svg">
<path d="M10 21L11.7468 18.4527C12.1441 17.8734 12.9991 17.8734 13.3963 18.4527L14.3183 19.7973C14.7155 20.3766 15.5705 20.3766 15.9677 19.7973L17.7468 17.2028C18.1441 16.6235 18.9991 16.6235 19.3963 17.2028L22 21" stroke="#2B2B2B" stroke-linecap="round"/>
<path d="M7 15C7 11.2288 7 9.34315 8.17157 8.17157C9.34315 7 11.2288 7 15 7H17C20.7712 7 22.6569 7 23.8284 8.17157C25 9.34315 25 11.2288 25 15V17C25 20.7712 25 22.6569 23.8284 23.8284C22.6569 25 20.7712 25 17 25H15C11.2288 25 9.34315 25 8.17157 23.8284C7 22.6569 7 20.7712 7 17V15Z" stroke="#2B2B2B"/>
<circle cx="13" cy="13" r="2.5" stroke="#2B2B2B"/>
</svg>
