<svg width="32" height="32" viewBox="0 0 32 32" fill="none" xmlns="http://www.w3.org/2000/svg">
<path d="M13.6275 16.0992L11.3952 18.331C10.6247 19.1013 10.6247 20.3504 11.3951 21.1209V21.1209C12.1656 21.8913 13.4148 21.8914 14.1853 21.121L16.0803 19.2263C16.1173 19.1893 16.1358 19.1708 16.1528 19.1534C17.1587 18.1229 17.5329 16.6314 17.1328 15.2482C17.126 15.2248 17.1185 15.1998 17.1033 15.1497V15.1497" stroke="#2B2B2B" stroke-linecap="round"/>
<path d="M18.8925 16.4165L21.1248 14.1847C21.8953 13.4143 21.8953 12.1652 21.1249 11.3948V11.3948C20.3545 10.6243 19.1053 10.6243 18.3348 11.3946L16.4397 13.2893C16.4027 13.3263 16.3842 13.3448 16.3672 13.3623C15.3614 14.3927 14.9871 15.8842 15.3872 17.2674C15.394 17.2908 15.4015 17.3158 15.4167 17.3659V17.3659" stroke="#2B2B2B" stroke-linecap="round"/>
<path d="M7 15C7 11.2288 7 9.34315 8.17157 8.17157C9.34315 7 11.2288 7 15 7H17C20.7712 7 22.6569 7 23.8284 8.17157C25 9.34315 25 11.2288 25 15V17C25 20.7712 25 22.6569 23.8284 23.8284C22.6569 25 20.7712 25 17 25H15C11.2288 25 9.34315 25 8.17157 23.8284C7 22.6569 7 20.7712 7 17V15Z" stroke="#2B2B2B"/>
</svg>
