<svg width="32" height="32" viewBox="0 0 32 32" fill="none" xmlns="http://www.w3.org/2000/svg">
<path d="M11 13C11 11.8954 11.8954 11 13 11H19C20.1046 11 21 11.8954 21 13V13C21 14.1046 20.1046 15 19 15H13C11.8954 15 11 14.1046 11 13V13Z" stroke="#2B2B2B"/>
<path d="M11 18L21 18" stroke="#2B2B2B" stroke-linecap="round"/>
<path d="M11 21L17 21" stroke="#2B2B2B" stroke-linecap="round"/>
<path d="M7 15C7 11.2288 7 9.34315 8.17157 8.17157C9.34315 7 11.2288 7 15 7H17C20.7712 7 22.6569 7 23.8284 8.17157C25 9.34315 25 11.2288 25 15V17C25 20.7712 25 22.6569 23.8284 23.8284C22.6569 25 20.7712 25 17 25H15C11.2288 25 9.34315 25 8.17157 23.8284C7 22.6569 7 20.7712 7 17V15Z" stroke="#2B2B2B"/>
</svg>
