<svg width="24" height="24" viewBox="0 0 24 24" fill="none" xmlns="http://www.w3.org/2000/svg">
<path d="M17 3.92932C17 3.77433 17 3.69683 17.0506 3.65206C17.1011 3.60729 17.1767 3.61651 17.3278 3.63494C17.371 3.64021 17.4138 3.64568 17.4561 3.65137C18.6006 3.80529 19.4876 4.12427 20.1816 4.81836L20.3076 4.9502C20.9153 5.62381 21.2043 6.47086 21.3486 7.54395C21.5006 8.67426 21.5 10.1285 21.5 12C21.5 13.8715 21.5006 15.3257 21.3486 16.4561C21.2043 17.5291 20.9153 18.3762 20.3076 19.0498L20.1816 19.1816C19.4876 19.8757 18.6006 20.1947 17.4561 20.3486C16.3257 20.5006 14.8715 20.5 13 20.5H11C9.12852 20.5 7.67426 20.5006 6.54395 20.3486C5.39944 20.1947 4.51245 19.8757 3.81836 19.1816C3.12427 18.4876 2.80529 17.6006 2.65137 16.4561C2.4994 15.3257 2.5 13.8715 2.5 12C2.5 10.1285 2.4994 8.67426 2.65137 7.54395C2.80529 6.39944 3.12427 5.51245 3.81836 4.81836L3.9502 4.69238C4.62381 4.08472 5.47086 3.79568 6.54395 3.65137C6.58624 3.64568 6.62899 3.64021 6.67219 3.63494C6.82332 3.61651 6.89888 3.60729 6.94944 3.65206C7 3.69683 7 3.77433 7 3.92932V4.3337C7 4.46132 7 4.52513 6.96251 4.56765C6.92503 4.61016 6.86032 4.61834 6.7309 4.63468C6.71309 4.63693 6.69536 4.63923 6.67773 4.6416C5.77312 4.76322 5.16861 4.98267 4.71191 5.35547L4.52539 5.52539C4.04799 6.00279 3.78059 6.64392 3.6416 7.67773C3.50071 8.7259 3.5 10.1004 3.5 12C3.5 13.8996 3.50071 15.2741 3.6416 16.3223C3.78059 17.3561 4.04799 17.9972 4.52539 18.4746C5.00279 18.952 5.64392 19.2194 6.67773 19.3584C7.7259 19.4993 9.1004 19.5 11 19.5H13C14.8996 19.5 16.2741 19.4993 17.3223 19.3584C18.3561 19.2194 18.9972 18.952 19.4746 18.4746L19.6445 18.2881C20.0173 17.8314 20.2368 17.2269 20.3584 16.3223C20.4993 15.2741 20.5 13.8996 20.5 12C20.5 10.1004 20.4993 8.7259 20.3584 7.67773C20.2368 6.77312 20.0173 6.16861 19.6445 5.71191L19.4746 5.52539C18.9972 5.04799 18.3561 4.78059 17.3223 4.6416C17.3046 4.63923 17.2869 4.63693 17.2691 4.63468C17.1397 4.61834 17.075 4.61016 17.0375 4.56765C17 4.52513 17 4.46132 17 4.3337V3.92932ZM13.7009 3.50034C13.8418 3.50054 13.9123 3.50064 13.9561 3.54456C14 3.58848 14 3.65902 14 3.8001V4.2001C14 4.34186 14 4.41275 13.956 4.45669C13.912 4.50064 13.841 4.50054 13.6991 4.50034C13.4743 4.50002 13.2414 4.5 13 4.5H11C10.7586 4.5 10.5257 4.50002 10.3009 4.50034C10.159 4.50054 10.088 4.50064 10.044 4.45669C10 4.41275 10 4.34186 10 4.2001V3.8001C10 3.65902 10 3.58848 10.0439 3.54456C10.0877 3.50064 10.1582 3.50054 10.2991 3.50034C10.526 3.50002 10.7595 3.5 11 3.5H13C13.2405 3.5 13.474 3.50002 13.7009 3.50034Z" fill="#2B2B2B"/>
<path d="M8.5 2.5L8.5 6.5" stroke="#2B2B2B" stroke-linecap="round"/>
<path d="M15.5 2.5L15.5 6.5" stroke="#2B2B2B" stroke-linecap="round"/>
<circle cx="7.5" cy="10.5" r="0.5" fill="#2B2B2B"/>
<circle cx="10.5" cy="10.5" r="0.5" fill="#2B2B2B"/>
<circle cx="13.5" cy="10.5" r="0.5" fill="#2B2B2B"/>
<circle cx="16.5" cy="10.5" r="0.5" fill="#2B2B2B"/>
<circle cx="7.5" cy="13.5" r="0.5" fill="#2B2B2B"/>
<circle cx="10.5" cy="13.5" r="0.5" fill="#2B2B2B"/>
<circle cx="13.5" cy="13.5" r="0.5" fill="#2B2B2B"/>
<circle cx="16.5" cy="13.5" r="0.5" fill="#2B2B2B"/>
<circle cx="7.5" cy="16.5" r="0.5" fill="#2B2B2B"/>
<circle cx="10.5" cy="16.5" r="0.5" fill="#2B2B2B"/>
<circle cx="13.5" cy="16.5" r="0.5" fill="#2B2B2B"/>
<circle cx="16.5" cy="16.5" r="0.5" fill="#2B2B2B"/>
</svg>
